# xmcd
#
# Track frame offsets: 
#        150
#        34135
#        76056
#        110088
#        156221
#        221610
#
# Disc length: 3334 seconds
#
# Revision: 0
# Processed by: cddbd v1.5.2PL0 Copyright (c) Steve Scherf et al.
# Submitted via: ExactAudioCopyFreeDBPlugin 1.0
#
DISCID=480d0406
DTITLE=Eric Clapton - Mr. Robert Johnson [CD 2)
DYEAR=2010
DGENRE=Blues
TTITLE0=Kind Hearted Woman
TTITLE1=Key To The Highway
TTITLE2=Further On Up The Road
TTITLE3=Cocaine
TTITLE4=Double Trouble
TTITLE5=Crossroads
EXTD=
EXTT0=
EXTT1=
EXTT2=
EXTT3=
EXTT4=
EXTT5=
PLAYORDER=
